<svg xmlns="http://www.w3.org/2000/svg" version="1.1" xmlns:xlink="http://www.w3.org/1999/xlink" width="512"
    height="512" x="0" y="0" viewBox="0 0 100 100" style="enable-background:new 0 0 512 512" xml:space="preserve"
    class="">
    <g>
        <path
            d="M46.4 66.3c-2 0-3.5 1.6-3.5 3.5s1.6 3.5 3.5 3.5 3.5-1.6 3.5-3.5-1.5-3.5-3.5-3.5zm0 5.1c-.8 0-1.5-.7-1.5-1.5s.7-1.5 1.5-1.5 1.6.6 1.6 1.4-.7 1.6-1.6 1.6zM23.5 37.2h.5c5.6 0 10.2-4.5 10.2-10.2 0-5.6-4.6-10.2-10.2-10.2S13.8 21.4 13.8 27c0 5.3 3.9 9.9 9.7 10.2zm.5-2h-.3c-2.2-.1-3.8-.9-5.2-2.2 1.2-1.9 3.3-3.1 5.5-3.1 2.3 0 4.4 1.2 5.5 3.1-1.5 1.5-3.5 2.2-5.5 2.2zm-.2-7.9c-1.2 0-2.2-1-2.2-2.2s1-2.2 2.2-2.2 2.2 1 2.2 2.2c-.1 1.2-1 2.2-2.2 2.2zm.2-8.5c4.5 0 8.2 3.7 8.2 8.2 0 1.6-.5 3.1-1.3 4.4-1.1-1.5-2.6-2.6-4.4-3.1.9-.8 1.5-1.9 1.5-3.2 0-2.3-1.9-4.2-4.2-4.2s-4.2 1.9-4.2 4.2c0 1.3.6 2.5 1.6 3.3-1.6.6-3.1 1.6-4.1 3-.9-1.3-1.3-2.9-1.3-4.4 0-4.5 3.6-8.2 8.2-8.2zM15.8 47.9h63.7c1.1 0 2-.9 2-2v-2.4c0-1.1-.9-2-2-2H15.8c-1.1 0-2 .9-2 2v2.4c0 1.1.9 2 2 2zm0-4.5h63.7v2.4H15.8zM79.5 56.7c1.1 0 2-.9 2-2v-2.4c0-1.1-.9-2-2-2H15.8c-1.1 0-2 .9-2 2v2.4c0 1.1.9 2 2 2zm-63.7-4.5h63.7v2.4H15.8zM81.5 70.4c-3.4 0-6.1 2.7-6.1 6.1s2.7 6.1 6.1 6.1 6.1-2.7 6.1-6.1-2.8-6.1-6.1-6.1zm0 10.2c-2.2 0-4.1-1.8-4.1-4.1 0-2.2 1.8-4.1 4.1-4.1 2.2 0 4.1 1.8 4.1 4.1 0 2.2-1.9 4.1-4.1 4.1z"
            fill="#000000" opacity="1" data-original="#000000" class=""></path>
        <path
            d="M98 88.3H85.3l.5-1.4 2.6 1.2c.4.2.8.1 1.1-.2l3.4-3.4c.3-.3.4-.7.2-1.1L92 80.8l2.6-1c.4-.1.6-.5.6-.9v-4.8c0-.4-.3-.8-.6-.9l-2.6-1 1.2-2.6c.2-.4.1-.8-.2-1.1l-3.4-3.4c-.1-.1-.3-.2-.5-.3V15.4c0-3.1-2.5-5.7-5.7-5.7h-73c-3.1 0-5.7 2.6-5.7 5.7v55.2c0 3.1 2.5 5.7 5.7 5.7h22.2V82H31c-2.4 0-4.3 1.9-4.3 4.3 0 .8.2 1.5.6 2.1H11c-.6 0-1 .4-1 1s.4 1 1 1h87c.6 0 1-.4 1-1s-.4-1.1-1-1.1zm-7-18.9-1.3 2.9c-.1.3-.1.5 0 .8s.3.5.6.6l3 1.1v3.4l-3 1.1c-.5.2-.8.8-.6 1.3l1.3 2.9-2.4 2.5-2.9-1.3c-.5-.2-1.1 0-1.4.6l-1.1 3h-3.4l-1.1-3c-.2-.5-.8-.8-1.4-.6L74.4 86 72 83.6l1.3-2.9c.2-.5 0-1.1-.6-1.3l-3-1.1v-3.4l3-1.1c.5-.2.8-.8.6-1.3L72 69.4l2.4-2.4 2.9 1.3c.5.2 1.2 0 1.4-.6l1.1-3h3.5l1.1 3c.2.5.8.8 1.4.6l2.9-1.3zm-4-3.9-1.2.5-.5-1.3H87zM6.8 15.3c0-2 1.6-3.7 3.7-3.7h72.9c2 0 3.7 1.7 3.7 3.7v47.4H6.9V15.3zm0 55.2v-5.8h70.9l-.5 1.3-2.6-1.2c-.4-.2-.8-.1-1.1.2l-3.4 3.4c-.3.3-.4.7-.2 1.1l1.2 2.6-2.6 1c-.4.1-.6.5-.6.9v.1H10.4c-2 .1-3.6-1.5-3.6-3.6zm27.8 5.7h23.6v5.7H34.6zM31 83.9h30.8c1.3 0 2.3 1 2.3 2.3 0 1.1-.9 2.1-2.1 2.1H30.8c-1.2 0-2.1-.9-2.1-2.1s1-2.3 2.3-2.3zm30.9-2h-1.6v-5.7h7.5v2.7c0 .4.3.8.6.9l2.6 1-1.2 2.6c-.2.4-.1.8.2 1.1l3.4 3.4c.3.3.7.4 1.1.2l2.6-1.2.5 1.4h-12c.4-.6.6-1.3.6-2.1 0-2.3-1.9-4.3-4.3-4.3zM2 90.3h4.5c.6 0 1-.4 1-1s-.4-1-1-1H2c-.6 0-1 .4-1 1s.4 1 1 1z"
            fill="#000000" opacity="1" data-original="#000000" class=""></path>
        <path
            d="M39.6 21h39.9c.6 0 1-.4 1-1s-.4-1-1-1H39.6c-.6 0-1 .4-1 1s.5 1 1 1zM39.6 28h39.9c.6 0 1-.4 1-1s-.4-1-1-1H39.6c-.6 0-1 .4-1 1s.5 1 1 1zM39.6 35h39.9c.6 0 1-.4 1-1s-.4-1-1-1H39.6c-.6 0-1 .4-1 1s.5 1 1 1z"
            fill="#000000" opacity="1" data-original="#000000" class=""></path>
    </g>
</svg>