<svg xmlns="http://www.w3.org/2000/svg" version="1.1" xmlns:xlink="http://www.w3.org/1999/xlink" x="0" y="0"
    viewBox="0 0 32 32" style="enable-background:new 0 0 512 512" xml:space="preserve" class="">
    <g>
        <path
            d="M20 30h-8c-2.2 0-4-1.8-4-4V6c0-2.2 1.8-4 4-4h8c2.2 0 4 1.8 4 4v20c0 2.2-1.8 4-4 4zM12 4c-1.1 0-2 .9-2 2v20c0 1.1.9 2 2 2h8c1.1 0 2-.9 2-2V6c0-1.1-.9-2-2-2zM27 26c-.6 0-1-.4-1-1s.4-1 1-1 1-.4 1-1V9c0-.6-.4-1-1-1s-1-.4-1-1 .4-1 1-1c1.7 0 3 1.3 3 3v14c0 1.7-1.3 3-3 3zM5 26c-1.7 0-3-1.3-3-3V9c0-1.7 1.3-3 3-3 .6 0 1 .4 1 1s-.4 1-1 1-1 .4-1 1v14c0 .6.4 1 1 1s1 .4 1 1-.4 1-1 1z"
            fill="#000000" opacity="1" data-original="#000000"></path>
    </g>
</svg>