<svg xmlns="http://www.w3.org/2000/svg" version="1.1" xmlns:xlink="http://www.w3.org/1999/xlink" x="0" y="0"
    viewBox="0 0 520 520" style="enable-background:new 0 0 512 512" xml:space="preserve" class="">
    <g>
        <path
            d="M260 490c-61.435 0-119.193-23.924-162.634-67.365C53.924 379.193 30 321.436 30 260c0-61.435 23.924-119.193 67.366-162.634C140.807 53.924 198.565 30 260 30c61.436 0 119.193 23.924 162.635 67.366C466.076 140.807 490 198.565 490 260c0 61.436-23.924 119.193-67.365 162.635S321.436 490 260 490zm0-440C144.206 50 50 144.206 50 260s94.206 210 210 210 210-94.206 210-210S375.794 50 260 50z"
            fill="#000000" opacity="1" data-original="#000000" class=""></path>
        <path
            d="M260 450c-104.766 0-190-85.233-190-190 0-104.766 85.234-190 190-190 104.767 0 190 85.234 190 190 0 104.767-85.233 190-190 190zm0-360c-93.738 0-170 76.262-170 170s76.262 170 170 170 170-76.262 170-170S353.738 90 260 90z"
            fill="#000000" opacity="1" data-original="#000000" class=""></path>
        <path
            d="M260 130c-5.523 0-10-4.477-10-10v-10c0-5.523 4.477-10 10-10 5.522 0 10 4.477 10 10v10c0 5.523-4.478 10-10 10zM260 420c-5.523 0-10-4.478-10-10v-10c0-5.522 4.477-10 10-10 5.522 0 10 4.478 10 10v10c0 5.522-4.478 10-10 10zM358.995 171.005a9.966 9.966 0 0 1-7.071-2.929c-3.905-3.905-3.905-10.237 0-14.142l7.071-7.071c3.907-3.905 10.237-3.904 14.143 0 3.905 3.905 3.905 10.237 0 14.142l-7.071 7.071a9.976 9.976 0 0 1-7.072 2.929zM153.934 376.066a9.972 9.972 0 0 1-7.071-2.929c-3.905-3.905-3.906-10.236 0-14.143l7.071-7.071c3.905-3.904 10.237-3.904 14.142 0 3.905 3.905 3.906 10.236 0 14.143l-7.071 7.071a9.966 9.966 0 0 1-7.071 2.929zM410 270h-10c-5.522 0-10-4.478-10-10 0-5.523 4.478-10 10-10h10c5.522 0 10 4.477 10 10 0 5.522-4.478 10-10 10zM120 270h-10c-5.523 0-10-4.478-10-10 0-5.523 4.477-10 10-10h10c5.523 0 10 4.477 10 10 0 5.522-4.477 10-10 10zM366.066 376.066a9.97 9.97 0 0 1-7.071-2.929l-7.071-7.071c-3.905-3.905-3.905-10.237 0-14.143 3.906-3.904 10.236-3.904 14.143 0l7.071 7.071c3.905 3.905 3.905 10.237 0 14.143a9.969 9.969 0 0 1-7.072 2.929zM161.005 171.005a9.966 9.966 0 0 1-7.071-2.929l-7.071-7.071c-3.905-3.905-3.905-10.237 0-14.143 3.905-3.904 10.237-3.904 14.143 0l7.071 7.071c3.905 3.905 3.905 10.237 0 14.143a9.97 9.97 0 0 1-7.072 2.929zM220.008 300.001A9.987 9.987 0 0 1 212 296c-3.313-4.418-2.418-10.687 2-14l36-27v-75c0-5.523 4.477-10 10-10 5.522 0 10 4.477 10 10v80a9.999 9.999 0 0 1-4 8l-40 30a9.959 9.959 0 0 1-5.992 2.001z"
            fill="#000000" opacity="1" data-original="#000000" class=""></path>
    </g>
</svg>