<svg xmlns="http://www.w3.org/2000/svg" version="1.1" xmlns:xlink="http://www.w3.org/1999/xlink" x="0" y="0"
    viewBox="0 0 512 512" style="enable-background:new 0 0 512 512" xml:space="preserve" class="">
    <g>
        <circle cx="256" cy="256" r="256" style="" fill="#f7d291" data-original="#f7d291"></circle>
        <circle cx="256" cy="256" r="222.97" style="" fill="#f5b97d" data-original="#f5b97d" class=""></circle>
        <path
            d="M330.323 437.677c-141.385 0-256-114.615-256-256 0-51.678 15.364-99.743 41.699-139.978C46.177 87.414 0 166.293 0 256c0 141.385 114.615 256 256 256 89.707 0 168.586-46.177 214.301-116.022-40.235 26.336-88.3 41.699-139.978 41.699z"
            style="" fill="#f5b97d" data-original="#f5b97d" class=""></path>
        <path
            d="M33.032 256c0 123.142 99.826 222.968 222.968 222.968 53.489 0 102.565-18.853 140.985-50.253-21.27 5.741-43.575 8.962-66.663 8.962-141.385 0-256-114.615-256-256 0-23.088 3.221-45.393 8.962-66.663C51.885 153.435 33.032 202.511 33.032 256z"
            style="" fill="#e3aa75" data-original="#e3aa75" class=""></path>
        <circle cx="256" cy="256" r="206.45" style="" fill="#ffedc6" data-original="#ffedc6" class=""></circle>
        <circle cx="256" cy="256" r="165.16" style="" fill="#ffffff" data-original="#ffffff" class=""></circle>
        <circle cx="256" cy="256" r="41.29" style="" fill="#ffedc6" data-original="#ffedc6" class=""></circle>
        <path
            d="M256 123.871a8.256 8.256 0 0 1-8.258-8.258V82.581c0-4.56 3.694-8.258 8.258-8.258s8.258 3.698 8.258 8.258v33.032a8.256 8.256 0 0 1-8.258 8.258zM256 437.677a8.256 8.256 0 0 1-8.258-8.258v-33.032c0-4.56 3.694-8.258 8.258-8.258s8.258 3.698 8.258 8.258v33.032a8.255 8.255 0 0 1-8.258 8.258zM429.419 264.258h-33.032c-4.565 0-8.258-3.698-8.258-8.258s3.694-8.258 8.258-8.258h33.032c4.565 0 8.258 3.698 8.258 8.258s-3.693 8.258-8.258 8.258zM115.613 264.258H82.581c-4.565 0-8.258-3.698-8.258-8.258s3.694-8.258 8.258-8.258h33.032c4.565 0 8.258 3.698 8.258 8.258s-3.694 8.258-8.258 8.258z"
            style="" fill="#867e88" data-original="#867e88"></path>
        <path
            d="M120.113 185.806a8.212 8.212 0 0 1-4.121-1.105l-14.306-8.258a8.257 8.257 0 0 1-3.024-11.282 8.25 8.25 0 0 1 11.282-3.024l14.306 8.258a8.257 8.257 0 0 1-4.137 15.411zM406.177 350.968a8.212 8.212 0 0 1-4.121-1.105l-14.306-8.258a8.257 8.257 0 0 1-3.024-11.282c2.282-3.952 7.331-5.31 11.282-3.024l14.306 8.258a8.257 8.257 0 0 1-4.137 15.411zM334.444 128.375a8.212 8.212 0 0 1-4.121-1.105c-3.952-2.282-5.306-7.335-3.024-11.282l8.258-14.302c2.282-3.952 7.339-5.302 11.282-3.024 3.952 2.282 5.306 7.335 3.024 11.282l-8.258 14.302a8.26 8.26 0 0 1-7.161 4.129zM169.282 414.444a8.212 8.212 0 0 1-4.121-1.105c-3.952-2.282-5.306-7.335-3.024-11.282l8.258-14.302c2.274-3.956 7.339-5.31 11.282-3.024 3.952 2.282 5.306 7.335 3.024 11.282l-8.258 14.302a8.258 8.258 0 0 1-7.161 4.129zM391.887 185.806a8.257 8.257 0 0 1-4.137-15.411l14.306-8.258c3.935-2.286 9-.931 11.282 3.024 2.282 3.952.927 9-3.024 11.282l-14.306 8.258a8.202 8.202 0 0 1-4.121 1.105zM105.823 350.968a8.257 8.257 0 0 1-4.137-15.411l14.306-8.258c3.944-2.286 8.992-.927 11.282 3.024 2.282 3.952.927 9-3.024 11.282l-14.306 8.258a8.215 8.215 0 0 1-4.121 1.105zM177.556 128.375a8.258 8.258 0 0 1-7.161-4.129l-8.258-14.302c-2.282-3.948-.927-9 3.024-11.282 3.935-2.278 8.992-.927 11.282 3.024l8.258 14.302c2.282 3.948.927 9-3.024 11.282a8.21 8.21 0 0 1-4.121 1.105zM342.718 414.444a8.258 8.258 0 0 1-7.161-4.129l-8.258-14.302c-2.282-3.948-.927-9 3.024-11.282 3.935-2.286 8.992-.931 11.282 3.024l8.258 14.302c2.282 3.948.927 9-3.024 11.282a8.215 8.215 0 0 1-4.121 1.105z"
            style="" fill="#e3aa75" data-original="#e3aa75" class=""></path>
        <path
            d="M256 264.258a8.247 8.247 0 0 1-5.839-2.419l-99.097-99.097a8.254 8.254 0 0 1 0-11.677 8.254 8.254 0 0 1 11.677 0l96.137 96.137 103.218-15.879c4.597-.71 8.726 2.403 9.419 6.907a8.252 8.252 0 0 1-6.903 9.415l-107.355 16.516a8.178 8.178 0 0 1-1.257.097z"
            style="" fill="#5d5360" data-original="#5d5360"></path>
        <circle cx="256" cy="256" r="16.516" style="" fill="#f5b97d" data-original="#f5b97d" class=""></circle>
    </g>
</svg>