<svg xmlns="http://www.w3.org/2000/svg" width="200" height="200" viewBox="0 0 200 200">
  <defs>
    <style>
      .cls-1 {
        fill: #313131;
        fill-rule: evenodd;
      }

      .cls-2 {
        fill: #d64a4a;
      }
    </style>
  </defs>
  <path class="cls-1" d="M165.005,197.006H35a30,30,0,0,1-30-30V34A30,30,0,0,1,35,4H165.005a30,30,0,0,1,30,30V167.006A30,30,0,0,1,165.005,197.006ZM21.841,165.09a15,15,0,0,0,15,15H164.159a15,15,0,0,0,15-15V64H21.841V165.09ZM164.159,20.91H36.841a15,15,0,0,0-15,15V47H179.159V35.91A15,15,0,0,0,164.159,20.91Z"/>
  <circle class="cls-2" cx="141.906" cy="142.906" r="27.063"/>
</svg>
