<svg width="54" height="54" viewBox="0 0 54 54" fill="none" xmlns="http://www.w3.org/2000/svg">
    <g clip-path="url(#clip0_36_192)">
        <path d="M5.48584 39.1623L18.7833 27.3056L33.8206 40.7139" stroke="#8B8B8B" stroke-miterlimit="10"
            stroke-linecap="round" stroke-linejoin="round" />
        <path d="M27.5276 35.1025L34.0956 29.2458L45.2166 39.1624" stroke="#8B8B8B" stroke-miterlimit="10"
            stroke-linecap="round" stroke-linejoin="round" />
        <path
            d="M40.7382 25.4648C47.4617 25.4648 52.9444 19.982 52.9444 13.2583C52.9444 6.53769 47.4617 1.05481 40.7382 1.05481C34.0178 1.05481 28.5351 6.53769 28.5351 13.2583C28.5351 19.982 34.0178 25.4648 40.7382 25.4648Z"
            stroke="#8B8B8B" stroke-miterlimit="10" stroke-linecap="round" stroke-linejoin="round" />
        <path
            d="M1.05542 22.8849V12.5169C1.05542 11.1298 2.19142 9.99372 3.57854 9.99372H28.9775M49.644 21.6023V42.7239C49.644 44.1081 48.505 45.2471 47.121 45.2471H23.719L10.4903 52.9453V45.2471H3.57854C2.19142 45.2471 1.05542 44.1111 1.05542 42.7239V32.356"
            stroke="#8B8B8B" stroke-miterlimit="10" stroke-linecap="round" stroke-linejoin="round" />
        <path d="M45.2164 24.6158V40.8195H5.48572V14.4243H28.5888" stroke="#8B8B8B" stroke-miterlimit="10"
            stroke-linecap="round" stroke-linejoin="round" />
        <path d="M40.7382 5.93703V14.7025" stroke="#8B8B8B" stroke-miterlimit="10" stroke-linecap="round"
            stroke-linejoin="round" />
        <path d="M37.4468 9.23145L40.7382 5.93693" stroke="#8B8B8B" stroke-miterlimit="10" stroke-linecap="round"
            stroke-linejoin="round" />
        <path d="M44.0326 9.23145L40.7382 5.93693" stroke="#8B8B8B" stroke-miterlimit="10" stroke-linecap="round"
            stroke-linejoin="round" />
        <path d="M46.8488 15.9342V18.7892H34.6276V15.9342" stroke="#8B8B8B" stroke-miterlimit="10"
            stroke-linecap="round" stroke-linejoin="round" />
        <path
            d="M12.8669 24.5321C14.3676 24.5321 15.5934 23.3093 15.5934 21.8055C15.5934 20.3048 14.3676 19.0791 12.8669 19.0791C11.3662 19.0791 10.1404 20.3048 10.1404 21.8055C10.1404 23.3093 11.3662 24.5321 12.8669 24.5321Z"
            stroke="#8B8B8B" stroke-miterlimit="10" stroke-linecap="round" stroke-linejoin="round" />
        <path d="M1.05542 27.6172V27.6204" stroke="#8B8B8B" stroke-miterlimit="10" stroke-linecap="round"
            stroke-linejoin="round" />
    </g>
    <defs>
        <clipPath id="clip0_36_192">
            <rect width="54" height="54" fill="white" />
        </clipPath>
    </defs>
</svg>