<svg xmlns="http://www.w3.org/2000/svg" version="1.1" xmlns:xlink="http://www.w3.org/1999/xlink" x="0" y="0"
    viewBox="0 0 48 48" style="enable-background:new 0 0 512 512" xml:space="preserve" class="">
    <g>
        <path fill="#000000" fill-rule="nonzero"
            d="M39 25c1.598 0 2.995 1.3 3 3v11c0 1.598-1.284 3-3 3H28a3.014 3.014 0 0 1-3-3V28c0-1.598 1.288-3 3-3zm-19 0c1.598 0 2.995 1.3 3 3v11c0 1.598-1.284 3-3 3H9a3.014 3.014 0 0 1-3-3V28c0-1.598 1.288-3 3-3zm19 2H28c-.513 0-1 .416-1 1v11c0 .513.403 1 1 1h11c.513 0 1-.403 1-1V28a.99.99 0 0 0-1-1zm-19 0H9c-.513 0-1 .416-1 1v11c0 .513.403 1 1 1h11c.513 0 1-.403 1-1V28a.99.99 0 0 0-1-1zM39 6c1.598 0 2.995 1.3 3 3v11c0 1.598-1.284 3-3 3H28a3.014 3.014 0 0 1-3-3V9c0-1.598 1.288-3 3-3zM20 6c1.598 0 2.995 1.3 3 3v11c0 1.598-1.284 3-3 3H9a3.014 3.014 0 0 1-3-3V9c0-1.598 1.288-3 3-3zm19 2H28c-.513 0-1 .416-1 1v11c0 .513.403 1 1 1h11c.513 0 1-.403 1-1V9a.99.99 0 0 0-1-1zM20 8H9c-.513 0-1 .416-1 1v11c0 .513.403 1 1 1h11c.513 0 1-.403 1-1V9a.99.99 0 0 0-1-1z"
            opacity="1" data-original="#000000" class=""></path>
    </g>
</svg>