<svg xmlns="http://www.w3.org/2000/svg" version="1.1" xmlns:xlink="http://www.w3.org/1999/xlink" x="0" y="0"
    viewBox="0 0 100 100" style="enable-background:new 0 0 512 512" xml:space="preserve" class="">
    <g>
        <path
            d="M49.994 2.5C23.757 2.5 2.5 23.757 2.5 49.994S23.757 97.5 50.006 97.5 97.5 76.232 97.5 49.994 76.232 2.5 49.994 2.5zm-5.816 70.771V49.994a5.82 5.82 0 0 1 5.816-5.816 5.82 5.82 0 0 1 5.816 5.816v23.277a5.802 5.802 0 0 1-5.816 5.816 5.802 5.802 0 0 1-5.816-5.816zm5.816-40.724c-3.223 0-5.816-2.607-5.816-5.816s2.593-5.83 5.816-5.83 5.816 2.607 5.816 5.83-2.593 5.816-5.816 5.816z"
            opacity="1" data-original="#000000" class=""></path>
    </g>
</svg>