<svg xmlns="http://www.w3.org/2000/svg" version="1.1" xmlns:xlink="http://www.w3.org/1999/xlink" x="0" y="0"
    viewBox="0 0 515.555 515.555" style="enable-background:new 0 0 512 512" xml:space="preserve" class="">
    <g>
        <path
            d="M496.679 212.208c25.167 25.167 25.167 65.971 0 91.138s-65.971 25.167-91.138 0-25.167-65.971 0-91.138 65.971-25.167 91.138 0M303.347 212.208c25.167 25.167 25.167 65.971 0 91.138s-65.971 25.167-91.138 0-25.167-65.971 0-91.138 65.971-25.167 91.138 0M110.014 212.208c25.167 25.167 25.167 65.971 0 91.138s-65.971 25.167-91.138 0-25.167-65.971 0-91.138 65.971-25.167 91.138 0"
            opacity="1" data-original="#000000" class=""></path>
    </g>
</svg>