<svg xmlns="http://www.w3.org/2000/svg" version="1.1" xmlns:xlink="http://www.w3.org/1999/xlink" x="0" y="0"
    viewBox="0 0 32 32" style="enable-background:new 0 0 512 512" xml:space="preserve" fill-rule="evenodd" class="">
    <g>
        <path
            d="M10.105 22.3A4.25 4.25 0 0 1 14 19.75h4a4.25 4.25 0 0 1 3.895 2.55.75.75 0 0 0 1.375-.6A5.748 5.748 0 0 0 18 18.25h-4a5.751 5.751 0 0 0-5.27 3.45.75.75 0 1 0 1.375.6z"
            fill="#000000" opacity="1" data-original="#000000" class=""></path>
        <path
            d="M16 8.25c-3.174 0-5.75 2.576-5.75 5.75s2.576 5.75 5.75 5.75 5.75-2.576 5.75-5.75S19.174 8.25 16 8.25zm0 1.5c2.346 0 4.25 1.904 4.25 4.25s-1.904 4.25-4.25 4.25-4.25-1.904-4.25-4.25S13.654 9.75 16 9.75z"
            fill="#000000" opacity="1" data-original="#000000" class=""></path>
        <path
            d="M26.609 12.25c.415 1.173.641 2.435.641 3.75 0 6.209-5.041 11.25-11.25 11.25S4.75 22.209 4.75 16 9.791 4.75 16 4.75c1.315 0 2.577.226 3.75.641a.75.75 0 0 0 .5-1.414A12.7 12.7 0 0 0 16 3.25C8.963 3.25 3.25 8.963 3.25 16S8.963 28.75 16 28.75 28.75 23.037 28.75 16a12.7 12.7 0 0 0-.727-4.25.75.75 0 0 0-1.414.5z"
            fill="#000000" opacity="1" data-original="#000000" class=""></path>
        <path d="M22 8.25h5a.75.75 0 0 0 0-1.5h-5a.75.75 0 0 0 0 1.5z" fill="#000000" opacity="1"
            data-original="#000000" class=""></path>
        <path d="M23.75 5v5a.75.75 0 0 0 1.5 0V5a.75.75 0 0 0-1.5 0z" fill="#000000" opacity="1" data-original="#000000"
            class=""></path>
    </g>
</svg>