<svg xmlns="http://www.w3.org/2000/svg" version="1.1" xmlns:xlink="http://www.w3.org/1999/xlink" x="0" y="0"
    viewBox="0 0 512.002 512.002" style="enable-background:new 0 0 512 512" xml:space="preserve" class="">
    <g>
        <path
            d="m425.557 126.589 10.756-10.756 7.071 7.071c1.953 1.953 4.512 2.929 7.071 2.929s5.119-.977 7.071-2.929c3.906-3.905 3.906-10.237 0-14.143l-28.284-28.284c-3.905-3.905-10.237-3.905-14.142 0-3.906 3.905-3.906 10.237 0 14.142l7.071 7.072-10.756 10.756c-30.059-27.608-66.256-46.389-105.413-55.026V10c0-5.523-4.477-10-10-10h-80c-5.523 0-10 4.477-10 10v47.42c-39.158 8.637-75.355 27.418-105.414 55.026L89.831 101.69l7.071-7.071c3.905-3.905 3.905-10.237 0-14.143s-10.237-3.905-14.143 0l-28.285 28.285c-3.905 3.905-3.905 10.237 0 14.143 1.953 1.953 4.512 2.929 7.071 2.929s5.119-.976 7.071-2.929l7.071-7.071 10.756 10.756c-39.054 42.52-60.444 97.323-60.444 155.413 0 45.038 13.028 88.661 37.675 126.155 3.035 4.615 9.234 5.896 13.85 2.863 4.615-3.034 5.897-9.234 2.863-13.85C57.891 362.948 46 323.123 46 282.001c0-115.794 94.206-210 210-210s210 94.206 210 210-94.206 210-210 210c-41.112 0-80.935-11.89-115.164-34.384-4.614-3.032-10.815-1.75-13.849 2.865-3.033 4.615-1.75 10.815 2.865 13.849 37.5 24.644 81.122 37.67 126.147 37.67 61.436 0 119.193-23.924 162.635-67.365 43.441-43.441 67.365-101.199 67.365-162.635.002-58.089-21.388-112.892-60.442-155.412zM226.001 20h60v30h-60z"
            fill="#000000" opacity="1" data-original="#000000" class=""></path>
        <path
            d="M446.001 282.002c0-104.767-85.233-190-190-190s-190 85.233-190 190 85.233 190 190 190 190-85.233 190-190zM114.076 375.49l2.183-1.26c4.783-2.762 6.421-8.877 3.66-13.661-2.762-4.783-8.878-6.422-13.661-3.66l-2.211 1.276a168.76 168.76 0 0 1-17.755-66.184h10.439c5.523 0 10-4.477 10-10s-4.477-10-10-10H86.293a168.771 168.771 0 0 1 17.754-66.183l2.211 1.277a9.997 9.997 0 0 0 13.66-3.659c2.762-4.783 1.123-10.899-3.66-13.661l-2.183-1.26a171.39 171.39 0 0 1 48.438-48.438l1.261 2.183a9.996 9.996 0 0 0 13.66 3.659c4.783-2.762 6.421-8.877 3.66-13.661l-1.277-2.211A168.76 168.76 0 0 1 246 112.292v10.439c0 5.523 4.477 10 10 10s10-4.477 10-10v-10.439a168.78 168.78 0 0 1 66.184 17.754l-1.277 2.211c-2.762 4.783-1.123 10.899 3.66 13.661a9.997 9.997 0 0 0 13.66-3.659l1.261-2.184a171.39 171.39 0 0 1 48.438 48.438l-2.184 1.261c-4.783 2.761-6.422 8.877-3.66 13.66a9.995 9.995 0 0 0 13.66 3.66l2.212-1.277a168.765 168.765 0 0 1 17.755 66.184h-10.44c-5.523 0-10 4.477-10 10s4.477 10 10 10h10.44a168.765 168.765 0 0 1-17.755 66.184l-2.212-1.277c-4.783-2.762-10.898-1.123-13.66 3.66s-1.123 10.899 3.66 13.66l2.183 1.26a171.39 171.39 0 0 1-48.438 48.438l-1.26-2.183c-2.762-4.783-8.877-6.422-13.66-3.66-4.783 2.761-6.422 8.877-3.66 13.66l1.277 2.212A168.765 168.765 0 0 1 266 451.71v-10.439c0-5.523-4.477-10-10-10s-10 4.477-10 10v10.439a168.765 168.765 0 0 1-66.184-17.755l1.277-2.212c2.761-4.783 1.122-10.899-3.661-13.66s-10.899-1.123-13.66 3.661l-1.26 2.182a171.351 171.351 0 0 1-48.436-48.436zM107.837 430.839c-3.715-4.086-10.038-4.386-14.124-.67-4.086 3.715-4.385 10.042-.67 14.128a9.974 9.974 0 0 0 7.402 3.273c2.4 0 4.808-.859 6.724-2.601 4.086-3.715 4.388-10.04.673-14.126z"
            fill="#000000" opacity="1" data-original="#000000" class=""></path>
        <path
            d="M180.622 366.935h.033l150.374.065.396.002c6.05 0 12.015-1.594 17.279-4.62 8.037-4.621 13.79-12.096 16.199-21.047 2.409-8.95 1.187-18.303-3.449-26.349l-74.426-128.781a34.634 34.634 0 0 0-13.71-14.537c-8.042-4.643-17.411-5.879-26.38-3.481-8.973 2.399-16.471 8.149-21.112 16.189l-75.323 130.463c-3.021 5.219-4.611 11.249-4.6 17.438.035 19.118 15.612 34.658 34.719 34.658zm-12.804-42.087 75.328-130.472a14.641 14.641 0 0 1 8.958-6.868 14.687 14.687 0 0 1 11.213 1.48 14.7 14.7 0 0 1 5.897 6.314c.104.213.215.422.333.628l74.582 129.052a14.599 14.599 0 0 1 1.459 11.155 14.581 14.581 0 0 1-6.856 8.907 14.673 14.673 0 0 1-7.31 1.958l-.327-.002-150.448-.065h-.014c-8.11 0-14.718-6.589-14.733-14.694-.002-2.664.659-5.217 1.918-7.393z"
            fill="#000000" opacity="1" data-original="#000000" class=""></path>
        <path
            d="M256.001 291.998c5.523 0 10-4.477 10-10v-54.996c0-5.523-4.477-10-10-10s-10 4.477-10 10v54.996c0 5.523 4.477 10 10 10zM256.001 331.999c5.523 0 10-4.481 10-10.004s-4.477-10-10-10-10 4.477-10 10v.007c0 5.523 4.477 9.997 10 9.997z"
            fill="#000000" opacity="1" data-original="#000000" class=""></path>
    </g>
</svg>