<svg xmlns="http://www.w3.org/2000/svg" version="1.1" xmlns:xlink="http://www.w3.org/1999/xlink" width="512"
    height="512" x="0" y="0" viewBox="0 0 682.667 682.667">
    <g class="svg-payment">
        <g clip-path="url(#a)" transform="matrix(1.33333 0 0 -1.33333 0 682.667)">
            <path d="M0 0h-36c-22.092 0-40-17.909-40-40v-280.893c0-22.091 17.908-40 40-40h212"
                style="stroke-width:20;stroke-linecap:round;stroke-linejoin:round;stroke-miterlimit:10;stroke-dasharray:none;stroke-opacity:1"
                transform="translate(86 462)" fill="none" stroke-width="30" stroke-linecap="round"
                stroke-linejoin="round" stroke-miterlimit="10" stroke-dasharray="none" stroke-opacity=""
                data-original="#000000" class=""></path>
            <path d="M0 0h-132"
                style="stroke-width:20;stroke-linecap:round;stroke-linejoin:round;stroke-miterlimit:10;stroke-dasharray:none;stroke-opacity:1"
                transform="translate(262 462)" fill="none" stroke-width="30" stroke-linecap="round"
                stroke-linejoin="round" stroke-miterlimit="10" stroke-dasharray="none" stroke-opacity=""
                data-original="#000000" class=""></path>
            <path d="M0 0v170c0 22.091-17.909 40-40 40h-36"
                style="stroke-width:20;stroke-linecap:round;stroke-linejoin:round;stroke-miterlimit:10;stroke-dasharray:none;stroke-opacity:1"
                transform="translate(382 252)" fill="none" stroke-width="30" stroke-linecap="round"
                stroke-linejoin="round" stroke-miterlimit="10" stroke-dasharray="none" stroke-opacity=""
                data-original="#000000" class=""></path>
            <path d="M0 0h141"
                style="stroke-width:20;stroke-linecap:round;stroke-linejoin:round;stroke-miterlimit:10;stroke-dasharray:none;stroke-opacity:1"
                transform="translate(10 374)" fill="none" stroke-width="30" stroke-linecap="round"
                stroke-linejoin="round" stroke-miterlimit="10" stroke-dasharray="none" stroke-opacity=""
                data-original="#000000" class=""></path>
            <path d="M0 0v0"
                style="stroke-width:20;stroke-linecap:round;stroke-linejoin:round;stroke-miterlimit:10;stroke-dasharray:none;stroke-opacity:1"
                transform="translate(196 374)" fill="none" stroke-width="30" stroke-linecap="round"
                stroke-linejoin="round" stroke-miterlimit="10" stroke-dasharray="none" stroke-opacity=""
                data-original="#000000" class=""></path>
            <path
                d="M0 0v0c-12.15 0-22 9.85-22 22v36c0 12.15 9.85 22 22 22v0c12.15 0 22-9.85 22-22V22C22 9.85 12.15 0 0 0Z"
                style="stroke-width:20;stroke-linecap:round;stroke-linejoin:round;stroke-miterlimit:10;stroke-dasharray:none;stroke-opacity:1"
                transform="translate(108 422)" fill="none" stroke-width="30" stroke-linecap="round"
                stroke-linejoin="round" stroke-miterlimit="10" stroke-dasharray="none" stroke-opacity=""
                data-original="#000000" class=""></path>
            <path
                d="M0 0v0c12.15 0 22 9.85 22 22v36c0 12.15-9.85 22-22 22v0c-12.15 0-22-9.85-22-22V22C-22 9.85-12.15 0 0 0Z"
                style="stroke-width:20;stroke-linecap:round;stroke-linejoin:round;stroke-miterlimit:10;stroke-dasharray:none;stroke-opacity:1"
                transform="translate(284 422)" fill="none" stroke-width="30" stroke-linecap="round"
                stroke-linejoin="round" stroke-miterlimit="10" stroke-dasharray="none" stroke-opacity=""
                data-original="#000000" class=""></path>
            <path d="M0 0h138.5"
                style="stroke-width:20;stroke-linecap:round;stroke-linejoin:round;stroke-miterlimit:10;stroke-dasharray:none;stroke-opacity:1"
                transform="translate(241 374)" fill="none" stroke-width="30" stroke-linecap="round"
                stroke-linejoin="round" stroke-miterlimit="10" stroke-dasharray="none" stroke-opacity=""
                data-original="#000000" class=""></path>
            <path
                d="M0 0c0-19.654-15.933-35.587-35.587-35.587-19.654 0-35.587 15.933-35.587 35.587v56.913c0 19.654 15.933 35.587 35.587 35.587C-15.933 92.5 0 76.567 0 56.913Z"
                style="stroke-width:20;stroke-linecap:round;stroke-linejoin:round;stroke-miterlimit:10;stroke-dasharray:none;stroke-opacity:1"
                transform="translate(288.9 218.962)" fill="none" stroke-width="30" stroke-linecap="round"
                stroke-linejoin="round" stroke-miterlimit="10" stroke-dasharray="none" stroke-opacity=""
                data-original="#000000" class=""></path>
            <path
                d="M0 0c2.89 14.715 15.859 25.815 31.421 25.815 17.685 0 32.021-14.337 32.021-32.022S49.106-38.228 31.421-38.228"
                style="stroke-width:20;stroke-linecap:round;stroke-linejoin:round;stroke-miterlimit:10;stroke-dasharray:none;stroke-opacity:1"
                transform="translate(103.701 285.647)" fill="none" stroke-width="30" stroke-linecap="round"
                stroke-linejoin="round" stroke-miterlimit="10" stroke-dasharray="none" stroke-opacity=""
                data-original="#000000" class=""></path>
            <path
                d="M0 0c17.685 0 32.022-14.337 32.022-32.022S17.685-64.043 0-64.043c-16.169 0-29.54 11.984-31.713 27.555a32.416 32.416 0 0 0-.309 4.466"
                style="stroke-width:20;stroke-linecap:round;stroke-linejoin:round;stroke-miterlimit:10;stroke-dasharray:none;stroke-opacity:1"
                transform="translate(135.122 247.418)" fill="none" stroke-width="30" stroke-linecap="round"
                stroke-linejoin="round" stroke-miterlimit="10" stroke-dasharray="none" stroke-opacity=""
                data-original="#000000" class=""></path>
            <path d="M0 0c66.274 0 120 53.726 120 120S66.274 240 0 240s-120-53.726-120-120S-66.274 0 0 0Z"
                style="stroke-width:20;stroke-linecap:round;stroke-linejoin:round;stroke-miterlimit:10;stroke-dasharray:none;stroke-opacity:1"
                transform="translate(382 10)" fill="none" stroke-width="30" stroke-linecap="round"
                stroke-linejoin="round" stroke-miterlimit="10" stroke-dasharray="none" stroke-opacity=""
                data-original="#000000" class=""></path>
            <path
                d="M0 0s-16.314 12.36-35.913 6.472c-20.005-6.01-24.967-33.39-11.376-44.05 7.804-6.121 19.547-11.154 35.372-16.748 35.42-12.52 22.327-62.472-13.703-62.711-14.06-.094-20.634.798-32.985 8.878"
                style="stroke-width:20;stroke-linecap:round;stroke-linejoin:round;stroke-miterlimit:10;stroke-dasharray:none;stroke-opacity:1"
                transform="translate(406.829 185.045)" fill="none" stroke-width="30" stroke-linecap="round"
                stroke-linejoin="round" stroke-miterlimit="10" stroke-dasharray="none" stroke-opacity=""
                data-original="#000000" class=""></path>
            <path d="M0 0v-160.452"
                style="stroke-width:20;stroke-linecap:round;stroke-linejoin:round;stroke-miterlimit:10;stroke-dasharray:none;stroke-opacity:1"
                transform="translate(382 210.226)" fill="none" stroke-width="30" stroke-linecap="round"
                stroke-linejoin="round" stroke-miterlimit="10" stroke-dasharray="none" stroke-opacity=""
                data-original="#000000" class=""></path>
        </g>
    </g>
</svg>