<svg xmlns="http://www.w3.org/2000/svg" version="1.1" xmlns:xlink="http://www.w3.org/1999/xlink" x="0" y="0"
    viewBox="0 0 409.6 409.6" style="enable-background:new 0 0 512 512" xml:space="preserve" class="">
    <g>
        <path
            d="M392.535 0h-170.67c-9.38 0-17.065 7.68-17.065 17.065v102.4c0 9.385 7.685 17.065 17.065 17.065h170.67c9.38 0 17.065-7.68 17.065-17.065v-102.4C409.6 7.68 401.915 0 392.535 0zm-17.07 102.4h-136.53V34.135h136.53V102.4zM187.735 273.07H17.065C7.685 273.07 0 280.75 0 290.13v102.4c0 9.39 7.685 17.07 17.065 17.07h170.67c9.38 0 17.065-7.68 17.065-17.07v-102.4c0-9.38-7.685-17.06-17.065-17.06zm-17.07 102.4H34.135V307.2h136.53v68.27zM119.485 85.33h51.18V51.2h-51.18C81.787 51.2 51.2 81.751 51.2 119.45v61.22l-27.064-27.05L0 177.751l56.202 56.182c6.651 6.671 17.464 6.671 24.136 0l56.202-56.197-24.141-24.136-27.064 27.069.015-61.22c0-18.851 15.284-34.119 34.135-34.119zM353.398 175.667c-6.651-6.666-17.464-6.666-24.136 0l-56.197 56.202L297.201 256l27.064-27.069-.015 61.22c0 18.852-15.283 34.12-34.135 34.12h-51.18v34.13h51.18c37.699 0 68.285-30.551 68.285-68.25v-61.22l27.064 27.049 24.136-24.131-56.202-56.182z"
            opacity="1" data-original="#000000" class=""></path>
    </g>
</svg>