<svg xmlns="http://www.w3.org/2000/svg" version="1.1" xmlns:xlink="http://www.w3.org/1999/xlink" x="0" y="0"
    viewBox="0 0 512 512" style="enable-background:new 0 0 512 512" xml:space="preserve" class="">
    <g>
        <path
            d="m497.6 426.2-81.8-81.8c53.6-86.6 42.8-201.7-32.3-276.8-87.7-87.7-229.9-87.7-317.6 0s-87.7 229.9 0 317.6c76.4 76.4 194.1 86.2 281.1 29.6l81.1 81c19.2 19.2 50.4 19.2 69.6 0 19.1-19.2 19.1-50.4-.1-69.6zm-376.4-96.4c-57-57-57-149.8 0-206.8S271 66 328 123s57 149.8 0 206.8-149.8 57-206.8 0z"
            opacity="1" data-original="#000000" class=""></path>
    </g>
</svg>