<svg xmlns="http://www.w3.org/2000/svg" version="1.1" xmlns:xlink="http://www.w3.org/1999/xlink" x="0" y="0"
    viewBox="0 0 24 24" style="enable-background:new 0 0 512 512" xml:space="preserve" class="">
    <g>
        <g>
            <path
                d="M12 20c0-.69-.56-1.25-1.25-1.25h-5.5V5.25h5.5a1.25 1.25 0 1 0 0-2.5H5A2.25 2.25 0 0 0 2.75 5v14A2.25 2.25 0 0 0 5 21.25h5.75c.69 0 1.25-.56 1.25-1.25z"
                opacity="1" class=""></path>
            <path
                d="m15 15.232 1.982-1.982H9.25a1.25 1.25 0 1 1 0-2.5h7.732L15 8.768A1.25 1.25 0 0 1 16.768 7l4.116 4.116a1.25 1.25 0 0 1 0 1.768L16.768 17A1.25 1.25 0 0 1 15 15.232z"
                opacity="1" class=""></path>
        </g>
    </g>
</svg>