<svg xmlns="http://www.w3.org/2000/svg" version="1.1" xmlns:xlink="http://www.w3.org/1999/xlink" x="0" y="0"
    viewBox="0 0 24 24" style="enable-background:new 0 0 512 512" xml:space="preserve" class="">
    <g>
        <path
            d="M16 18H4c-.6 0-1-.4-1-1s.4-1 1-1h12c.6 0 1 .4 1 1s-.4 1-1 1zM13 13H4c-.6 0-1-.4-1-1s.4-1 1-1h9c.6 0 1 .4 1 1s-.4 1-1 1zM10 8H4c-.6 0-1-.4-1-1s.4-1 1-1h6c.6 0 1 .4 1 1s-.4 1-1 1zM18 14c-.6 0-1-.4-1-1V5c0-.6.4-1 1-1s1 .4 1 1v8c0 .6-.4 1-1 1z"
            opacity="1" data-original="#000000" class=""></path>
        <path
            d="M21 9c-.3 0-.5-.1-.7-.3L18 6.4l-2.3 2.3c-.4.4-1 .4-1.4 0s-.4-1 0-1.4l3-3c.4-.4 1-.4 1.4 0l3 3c.4.4.4 1 0 1.4-.2.2-.4.3-.7.3z"
            opacity="1" data-original="#000000" class=""></path>
    </g>
</svg>