<svg xmlns="http://www.w3.org/2000/svg" version="1.1" xmlns:xlink="http://www.w3.org/1999/xlink" x="0" y="0"
    viewBox="0 0 24 24" style="enable-background:new 0 0 512 512" xml:space="preserve" class="">
    <g>
        <path
            d="m19.79 7.83-5.54-4.75c-1.25-1.07-3.24-1.07-4.49 0L4.22 7.83c-.61.52-.96 1.28-.96 2.09V19c0 1.52 1.23 2.75 2.75 2.75h12c1.52 0 2.75-1.23 2.75-2.75V9.92c0-.8-.35-1.57-.96-2.09zm-5.54 12.42h-4.5V16c0-.69.56-1.25 1.25-1.25h2c.69 0 1.25.56 1.25 1.25zm5-1.25c0 .69-.56 1.25-1.25 1.25h-2.25V16c0-1.52-1.23-2.75-2.75-2.75h-2c-1.52 0-2.75 1.23-2.75 2.75v4.25H6c-.69 0-1.25-.56-1.25-1.25V9.92c0-.37.16-.71.44-.95l5.54-4.75a1.953 1.953 0 0 1 2.54 0l5.54 4.75c.28.24.44.58.44.95z"
            opacity="1" data-original="#000000"></path>
    </g>
</svg>