<svg xmlns="http://www.w3.org/2000/svg" version="1.1" xmlns:xlink="http://www.w3.org/1999/xlink" x="0" y="0"
    viewBox="0 0 64 64" style="enable-background:new 0 0 512 512" xml:space="preserve" class="">
    <g>
        <path
            d="M14.69 58.032h14.84a2 2 0 0 0 0-4H14.69c-4.379 0-7.942-3.562-7.942-7.942V28.999A7.97 7.97 0 0 1 9.985 22.6l15.077-11.089a7.906 7.906 0 0 1 9.411 0L49.55 22.601a2 2 0 0 0 2.37-3.223L36.843 8.29a11.891 11.891 0 0 0-14.151 0L7.615 19.378a11.987 11.987 0 0 0-4.867 9.62V46.09c0 6.585 5.358 11.942 11.942 11.942z"
            opacity="1" data-original="#000000"></path>
        <path
            d="M45.498 26.525c-8.686 0-15.753 7.067-15.753 15.753s7.067 15.754 15.753 15.754 15.754-7.067 15.754-15.754-7.067-15.753-15.754-15.753zm0 27.507c-6.48 0-11.753-5.272-11.753-11.754 0-6.48 5.273-11.753 11.754-11.753s11.753 5.273 11.753 11.753c0 6.482-5.272 11.754-11.754 11.754z"
            opacity="1" data-original="#000000"></path>
        <path
            d="M51.073 40.799h-3.575v-3.575a2 2 0 0 0-4 0v3.575h-3.574a2 2 0 0 0 0 4h3.575v3.574a2 2 0 0 0 4 0v-3.574h3.574a2 2 0 0 0 0-4z"
            opacity="1" data-original="#000000"></path>
    </g>
</svg>