<svg xmlns="http://www.w3.org/2000/svg" version="1.1" xmlns:xlink="http://www.w3.org/1999/xlink" x="0" y="0"
    viewBox="0 0 512 512" style="enable-background:new 0 0 512 512" xml:space="preserve" class="">
    <g>
        <path
            d="M431 271.426V96c0-22.056-17.944-40-40-40V46c0-16.575-13.425-30-30-30-16.542 0-30 13.458-30 30v10h-20V46c0-16.575-13.425-30-30-30-16.542 0-30 13.458-30 30v10h-70V46c0-16.575-13.425-30-30-30-16.542 0-30 13.458-30 30v10h-20V46c0-16.575-13.425-30-30-30-16.542 0-30 13.458-30 30v10C18.944 56 1 73.944 1 96v340c0 22.056 17.944 40 40 40h290.193c18.391 12.593 40.667 20 64.807 20 63.411 0 115-51.589 115-115 0-51.989-33.92-94.901-80-109.574zM351 46c0-5.514 4.486-10 10-10 5.521 0 10 4.48 10 10v40c0 5.514-4.486 10-10 10s-10-4.486-10-10zm-80 0c0-5.514 4.486-10 10-10 5.521 0 10 4.481 10 10v40c0 5.514-4.486 10-10 10s-10-4.486-10-10zm-130 0c0-5.514 4.486-10 10-10 5.521 0 10 4.481 10 10v40c0 5.514-4.486 10-10 10s-10-4.486-10-10zm-80 0c0-5.514 4.486-10 10-10 5.521 0 10 4.481 10 10v40c0 5.514-4.486 10-10 10s-10-4.486-10-10zm220 335c0 28.487 10.461 54.772 27.864 75H41c-11.028 0-20-8.972-20-20V156h390v110.975c-68.998-8.987-130 44.81-130 114.025zm115-10c17.133 0 31 13.861 31 31 0 13.633-8.78 25.189-21 29.345V444c0 5.522-4.478 10-10 10s-10-4.478-10-10v-11h-11c-5.522 0-10-4.478-10-10s4.478-10 10-10h21c6.079 0 11-4.917 11-11 0-6.079-4.917-11-11-11-17.133 0-31-13.861-31-31 0-13.595 8.8-25.165 21-29.335V318c0-5.522 4.478-10 10-10s10 4.478 10 10v11h11c5.522 0 10 4.478 10 10s-4.478 10-10 10h-21c-6.065 0-11 4.935-11 11 0 6.079 4.917 11 11 11z"
            fill="#000000" opacity="1" data-original="#000000" class=""></path>
        <path
            d="M101 186H61c-5.522 0-10 4.477-10 10v40c0 5.523 4.478 10 10 10h40c5.522 0 10-4.477 10-10v-40c0-5.523-4.478-10-10-10zm-10 40H71v-20h20zM191 186h-40c-5.523 0-10 4.477-10 10v40c0 5.523 4.477 10 10 10h40c5.523 0 10-4.477 10-10v-40c0-5.523-4.477-10-10-10zm-10 40h-20v-20h20zM281 186h-40c-5.523 0-10 4.477-10 10v40c0 5.523 4.477 10 10 10h40c5.522 0 10-4.477 10-10v-40c0-5.523-4.478-10-10-10zm-10 40h-20v-20h20zM371 186h-40c-5.522 0-10 4.477-10 10v40c0 5.523 4.478 10 10 10h40c5.522 0 10-4.477 10-10v-40c0-5.523-4.478-10-10-10zm-10 40h-20v-20h20zM101 276H61c-5.522 0-10 4.478-10 10v40c0 5.522 4.478 10 10 10h40c5.522 0 10-4.478 10-10v-40c0-5.522-4.478-10-10-10zm-10 40H71v-20h20zM191 276h-40c-5.523 0-10 4.478-10 10v40c0 5.522 4.477 10 10 10h40c5.523 0 10-4.478 10-10v-40c0-5.522-4.477-10-10-10zm-10 40h-20v-20h20zM191 366h-40c-5.523 0-10 4.478-10 10v40c0 5.522 4.477 10 10 10h40c5.523 0 10-4.478 10-10v-40c0-5.522-4.477-10-10-10zm-10 40h-20v-20h20zM101 366H61c-5.522 0-10 4.478-10 10v40c0 5.522 4.478 10 10 10h40c5.522 0 10-4.478 10-10v-40c0-5.522-4.478-10-10-10zm-10 40H71v-20h20z"
            fill="#000000" opacity="1" data-original="#000000" class=""></path>
    </g>
</svg>