<svg xmlns="http://www.w3.org/2000/svg" version="1.1" xmlns:xlink="http://www.w3.org/1999/xlink" width="512"
    height="512" x="0" y="0" viewBox="0 0 32 32" style="enable-background:new 0 0 512 512" xml:space="preserve"
    class="">
    <g>
        <g fill="#000" fill-rule="evenodd" clip-rule="evenodd">
            <path
                d="M16 13.5a4 4 0 1 0 0 8 4 4 0 0 0 0-8zm-6 4a6 6 0 1 1 12 0 6 6 0 0 1-12 0zM27.408 16.184a6.474 6.474 0 0 0-2.906-.684 1 1 0 1 1-.004-2 8.475 8.475 0 0 1 6.803 3.401 1 1 0 0 1-1.602 1.198 6.475 6.475 0 0 0-2.29-1.915zM7.498 15.5a6.475 6.475 0 0 0-5.197 2.599A1 1 0 0 1 .7 16.9 8.476 8.476 0 0 1 7.502 13.5a1 1 0 1 1-.004 2z"
                fill="#000000" opacity="1" data-original="#000000" class=""></path>
            <path
                d="M16 23.503a7.013 7.013 0 0 0-6.301 3.936A1 1 0 0 1 7.9 26.56a9.012 9.012 0 0 1 16.198 0 1 1 0 1 1-1.798.878A7.012 7.012 0 0 0 16 23.503zM8.24 7.594A3 3 0 1 0 7.5 13.5a1 1 0 1 1 .002 2 5 5 0 1 1 4.906-5.938 1 1 0 0 1-1.964.376A3 3 0 0 0 8.24 7.594zM25.432 7.647a3 3 0 0 0-3.875 2.29 1 1 0 0 1-1.964-.374 5 5 0 1 1 4.906 5.937 1 1 0 1 1 .002-2 3 3 0 0 0 .931-5.853z"
                fill="#000000" opacity="1" data-original="#000000" class=""></path>
        </g>
    </g>
</svg>